<svg xmlns="http://www.w3.org/2000/svg" xmlns:xlink="http://www.w3.org/1999/xlink" viewBox="0,0,256,256" width="64px" height="64px" fill-rule="nonzero"><g fill="none" fill-rule="nonzero" stroke="none" stroke-width="none" stroke-linecap="none" stroke-linejoin="none" stroke-miterlimit="10" stroke-dasharray="" stroke-dashoffset="0" font-family="none" font-weight="none" font-size="none" text-anchor="none" style="mix-blend-mode: normal"><g transform="scale(4,4)"><path d="M54,39c0,-3.004 -1.931,-4.551 -3,-5v-6c0,-1.105 -0.895,-2 -2,-2h-3v1.061c0,2.005 -1.535,3.769 -3.539,3.836c-3.719,0.124 -7.484,-4.897 -7.484,-4.897h-4.977c0,0 -4.118,5.161 -8.176,5.01c-2.162,-0.081 -3.824,-1.963 -3.824,-4.127v-0.883h-3c-1.105,0 -2,0.895 -2,2v6c-1.069,0.449 -3,2.074 -3,5.078c0,4.899 4,6.922 4,6.922c0,0 -0.372,9.001 8.202,9.001c4.899,0 5.009,-4.006 9.798,-4.006c4.789,0 4.899,4.006 9.798,4.006c8.574,0 8.202,-9.001 8.202,-9.001c0,0 4,-2.101 4,-7z" fill="#37daf9" stroke="none" stroke-width="1" stroke-linecap="butt" stroke-linejoin="miter"></path><ellipse cx="32" cy="61" rx="19" ry="3" fill="#000000" stroke="none" stroke-width="1" stroke-linecap="butt" stroke-linejoin="miter" opacity="0.3"></ellipse><ellipse cx="32" cy="23.156" rx="17" ry="17.147" fill="#37daf9" stroke="none" stroke-width="1" stroke-linecap="butt" stroke-linejoin="miter"></ellipse><path d="M22.969,13.137c1.431,-1.304 3.138,-2.186 5.021,-2.779" fill="none" stroke="#ffffff" stroke-width="3" stroke-linecap="round" stroke-linejoin="round"></path><circle cx="23.5" cy="47.5" r="2.5" fill="#9c34c2" stroke="none" stroke-width="1" stroke-linecap="butt" stroke-linejoin="miter"></circle><circle cx="40.5" cy="47.5" r="2.5" fill="#9c34c2" stroke="none" stroke-width="1" stroke-linecap="butt" stroke-linejoin="miter"></circle><path d="M32,43.977c-2.209,0 -4,1.645 -4,3.674v4.685c1.011,-0.573 2.199,-1.342 4,-1.342c1.801,0 2.989,0.756 4,1.329v-4.672c0,-2.029 -1.791,-3.674 -4,-3.674z" fill="#9c34c2" stroke="none" stroke-width="1" stroke-linecap="butt" stroke-linejoin="miter"></path><path d="M44.498,43c-0.363,0 -0.731,-0.079 -1.08,-0.247l-11.371,-5.458l-10.391,5.421c-1.223,0.64 -2.733,0.165 -3.373,-1.06c-0.639,-1.224 -0.164,-2.734 1.06,-3.373l11.5,-6c0.698,-0.365 1.527,-0.379 2.238,-0.038l12.5,6c1.245,0.598 1.769,2.091 1.172,3.336c-0.429,0.897 -1.323,1.419 -2.255,1.419z" fill="#9c34c2" stroke="none" stroke-width="1" stroke-linecap="butt" stroke-linejoin="miter"></path><path d="M48.952,22h-33.915c0,0 -0.073,0.125 -0.039,4h3v0.883c0,2.163 1.01,4.117 3.824,4.117c2.979,0 5.18,-1.943 6.735,-3.449c0.933,-0.904 2.147,-1.551 3.437,-1.551c1.29,0 2.504,0.647 3.437,1.552c1.555,1.507 3.756,3.449 6.735,3.449c2.814,0 3.824,-1.954 3.824,-4.117v-0.884h3c0.035,-3.875 -0.038,-4 -0.038,-4z" fill="#9c34c2" stroke="none" stroke-width="1" stroke-linecap="butt" stroke-linejoin="miter"></path><path d="M15.064,21.875c0.354,0.078 0.71,0.128 1.062,0.128c2.014,0 3.913,-1.226 4.673,-3.22c1.269,-3.326 4.071,-5.882 7.69,-7.011c2.468,-0.77 3.889,-3.277 3.387,-5.758c-8.903,0.066 -16.163,7.033 -16.812,15.861z" fill="#ffffff" stroke="none" stroke-width="1" stroke-linecap="butt" stroke-linejoin="miter" opacity="0.3"></path><path d="M51.852,34.502c-1.682,0.806 -2.852,2.509 -2.852,4.498c0,1.568 -1.045,2.379 -1.38,2.599c-1.817,0.851 -2.701,2.533 -2.617,4.547c0.011,0.7 -0.223,2.403 -1.013,3.206c-0.158,0.161 -0.639,0.648 -2.191,0.648c-2.133,0 -3.941,1.342 -4.659,3.222c1.154,0.921 2.394,1.778 4.659,1.778c8.573,0.001 8.201,-9 8.201,-9c0,0 4,-2.101 4,-7c0,-2.306 -1.136,-3.746 -2.148,-4.498z" fill="#000000" stroke="none" stroke-width="1" stroke-linecap="butt" stroke-linejoin="miter" opacity="0.15"></path></g></g></svg>